<?xml version="1.0" standalone="no"?>
<!DOCTYPE svg PUBLIC "-//W3C//DTD SVG 20010904//EN"
 "http://www.w3.org/TR/2001/REC-SVG-20010904/DTD/svg10.dtd">
<svg version="1.0" xmlns="http://www.w3.org/2000/svg"
 width="1536.000000pt" height="1024.000000pt" viewBox="0 0 1536.000000 1024.000000"
 preserveAspectRatio="xMidYMid meet">

<g transform="translate(0.000000,1024.000000) scale(0.100000,-0.100000)"
fill="#000000" stroke="none">
<path d="M5869 8199 c-202 -18 -454 -105 -620 -214 -106 -70 -254 -221 -328
-335 -96 -148 -158 -316 -180 -489 -8 -58 -11 -606 -11 -1754 0 -1854 -2
-1782 66 -1987 164 -487 603 -816 1151 -861 85 -7 698 -9 1833 -6 1703 3 1705
3 1818 25 137 26 270 70 374 122 343 171 581 484 665 870 17 80 18 179 18
1835 l0 1750 -27 111 c-49 204 -134 375 -260 522 -70 82 -215 200 -318 259
-81 46 -227 104 -285 113 -27 5 -88 16 -135 26 -79 16 -215 17 -1875 19 -984
2 -1833 -1 -1886 -6z m2032 -647 c150 -98 171 -153 98 -258 -46 -65 -158 -204
-165 -204 -17 0 -157 95 -200 135 -47 44 -54 56 -54 89 0 24 10 57 27 85 40
69 122 179 141 191 37 21 79 10 153 -38z m703 -302 c197 -50 332 -178 344
-327 4 -43 1 -54 -13 -59 -9 -4 -90 12 -180 36 -91 23 -172 40 -180 36 -13 -5
-15 -13 -10 -38 11 -48 28 -78 78 -134 40 -44 198 -166 229 -176 18 -6 -113
-218 -135 -218 -6 0 -59 32 -120 70 -60 39 -112 72 -117 73 -4 1 -24 -22 -45
-51 l-37 -54 55 -156 54 -157 129 -7 c168 -9 201 -14 249 -41 37 -21 42 -22
70 -8 50 25 127 20 168 -12 36 -27 82 -121 109 -220 11 -43 14 -46 47 -49 31
-3 37 -8 50 -43 8 -22 16 -42 17 -44 2 -2 23 11 47 28 54 39 125 62 194 62 94
1 93 1 92 -109 -1 -128 -13 -270 -25 -282 -5 -5 -51 -20 -102 -33 -51 -14 -95
-27 -98 -29 -2 -3 18 -61 45 -129 33 -80 55 -123 63 -121 7 2 56 4 108 4 123
0 212 -21 329 -79 369 -182 478 -655 220 -956 -81 -94 -214 -171 -349 -202
l-55 -13 75 -1 c80 -1 314 -34 368 -52 17 -6 32 -16 32 -23 0 -10 -72 -14
-317 -19 -412 -9 -4221 -7 -4293 2 -53 6 -54 7 -20 13 48 10 205 25 380 38
368 28 539 40 580 41 26 1 35 3 20 6 -75 12 -183 49 -249 83 -176 92 -296 251
-335 442 -29 142 -13 259 53 393 115 231 350 366 616 352 164 -8 330 -77 422
-174 l33 -34 32 37 c41 46 61 74 57 78 -2 2 -70 37 -151 79 -81 41 -194 106
-252 145 l-106 69 -128 7 -127 7 -45 -46 c-92 -95 -307 -275 -330 -275 -12 0
-35 14 -52 30 l-30 30 23 38 c50 82 253 364 266 369 13 5 67 -2 178 -23 17 -3
-24 21 -90 55 -152 76 -217 124 -213 154 l3 22 300 -1 c165 0 363 -4 440 -8
l140 -8 87 -89 c80 -81 130 -114 114 -74 -23 62 -38 139 -40 206 l-2 79 -142
85 c-264 158 -462 306 -462 347 0 23 14 48 221 379 342 548 366 579 457 579
53 0 71 -9 357 -180 267 -160 280 -170 288 -208 l6 -29 80 5 c59 3 91 0 121
-12 73 -29 78 -20 23 37 -28 28 -56 62 -62 74 -28 55 -1 229 48 309 30 49 87
87 160 106 87 22 142 22 235 -2z m-1939 -243 c40 -23 88 -82 82 -101 -2 -6
-14 -16 -28 -23 -179 -89 -527 -253 -536 -253 -19 0 -43 55 -43 97 1 109 111
233 253 284 78 28 219 26 272 -4z m2864 -37 c186 -93 322 -239 338 -360 7 -51
-20 -78 -117 -115 -137 -52 -144 -55 -131 -68 15 -15 14 -60 -1 -75 -19 -19
-45 -14 -81 18 l-34 29 -73 -29 c-73 -28 -74 -29 -77 -65 -4 -69 -37 -83 -83
-36 l-29 28 -41 -18 c-73 -33 -108 -39 -125 -22 -23 22 -5 42 61 68 32 12 102
39 154 60 137 54 186 73 265 102 117 43 126 49 115 79 -22 56 -78 118 -174
190 -56 42 -107 84 -113 92 -7 9 -14 14 -16 11 -28 -40 -144 -247 -232 -414
-80 -152 -105 -178 -105 -111 0 37 42 122 206 419 109 197 114 204 151 228 39
26 74 24 142 -11z m-2781 -122 c28 -28 10 -44 -118 -107 -120 -59 -219 -90
-295 -90 -16 0 376 206 396 208 3 1 10 -4 17 -11z m2677 -99 c40 -35 42 -49
18 -90 -26 -43 -55 -47 -97 -12 -20 15 -36 34 -36 41 0 21 49 92 65 92 8 0 30
-14 50 -31z m-2641 5 c13 -35 12 -36 -124 -87 -50 -19 -75 -23 -100 -18 -35 7
-35 8 75 64 118 60 139 66 149 41z m36 -101 c0 -16 -481 -253 -514 -253 -30 0
-50 15 -43 32 7 19 370 201 462 232 71 24 95 21 95 -11z m2743 -5 c38 -27 36
-62 -9 -104 -39 -38 -76 -44 -112 -18 -30 21 -28 36 14 105 40 64 40 64 107
17z m-3065 -30 c-5 -17 -207 -118 -235 -118 -27 0 -65 46 -61 74 2 12 16 27
31 34 35 17 97 8 97 -13 0 -8 5 -15 11 -15 6 0 9 7 5 15 -7 18 39 33 107 34
35 1 48 -3 45 -11z m2840 -64 c29 -33 28 -43 -8 -92 -42 -58 -72 -76 -115 -68
-31 6 -35 10 -35 38 0 31 61 143 83 151 21 9 51 -3 75 -29z m-3585 -35 c39
-20 127 -100 127 -115 0 -37 -93 1 -154 64 -49 52 -33 82 27 51z m4399 -31 c9
-25 -5 -40 -80 -89 -100 -66 -148 -78 -123 -31 11 21 101 93 146 116 36 19 51
20 57 4z m-3861 -214 c68 -20 139 -88 139 -133 0 -27 -4 -30 -42 -36 -48 -8
-254 -67 -425 -122 -126 -40 -137 -38 -149 24 -20 104 92 226 245 269 65 17
168 17 232 -2z m3639 -73 c0 -22 -81 -86 -122 -96 -56 -14 -37 34 35 86 47 34
87 39 87 10z m-3492 -153 c3 -23 -1 -28 -19 -28 -12 0 -67 -14 -122 -31 -100
-31 -100 -31 -146 -13 l-46 17 75 24 c133 41 215 62 235 60 14 -1 21 -11 23
-29z m3098 14 c37 -25 44 -104 14 -169 -19 -44 -103 -133 -124 -133 -6 0 -17
13 -23 30 -7 19 -32 43 -73 69 l-63 39 42 27 c22 15 50 42 61 60 38 62 69 85
114 85 22 0 46 -4 52 -8z m644 -22 c18 -11 17 -12 -45 -43 -85 -42 -194 -77
-241 -77 -85 0 -36 43 106 95 96 34 153 42 180 25z m-4642 -57 c49 -24 78 -45
80 -57 4 -17 -1 -18 -46 -14 -57 6 -179 60 -189 84 -8 22 15 36 50 29 16 -2
63 -22 105 -42z m907 -18 c0 -27 -4 -29 -75 -46 -94 -23 -109 -23 -132 -2 -18
16 -14 18 84 49 57 17 108 31 113 30 6 -2 10 -15 10 -31z m-450 -60 c21 -20
30 -23 41 -14 8 6 14 18 14 25 0 20 83 18 126 -2 35 -17 45 -34 20 -34 -8 0
-70 -18 -137 -40 -68 -22 -131 -40 -140 -40 -23 0 -49 37 -49 69 0 61 74 82
125 36z m470 -16 c4 -12 3 -25 -2 -29 -15 -16 -479 -170 -509 -170 -37 0 -58
14 -51 33 11 28 435 173 544 186 6 0 15 -8 18 -20z m3723 -161 c30 -30 1 -71
-42 -60 -40 10 -49 48 -13 62 31 12 41 12 55 -2z m-4583 -68 c39 -15 29 -42
-20 -53 -40 -9 -146 -4 -178 8 -22 9 -22 31 1 44 22 13 163 14 197 1z m4551
-34 c3 -8 -2 -38 -10 -67 -9 -29 -16 -58 -16 -64 0 -6 27 -17 60 -23 48 -10
63 -18 72 -38 6 -13 8 -27 4 -31 -3 -4 -46 1 -94 10 -116 22 -212 31 -212 20
0 -5 67 -20 149 -33 l149 -23 -15 -23 c-8 -13 -29 -26 -46 -29 -29 -6 -35 -13
-65 -93 -44 -114 -51 -154 -13 -72 50 108 65 132 89 148 23 15 23 15 16 -14
-9 -34 -82 -204 -96 -221 -19 -24 -254 15 -265 43 -7 19 47 356 60 372 8 10
30 13 76 10 59 -3 66 -1 69 17 2 11 10 44 18 73 13 45 18 52 40 52 13 0 27 -6
30 -14z m-4315 -200 c136 -38 130 -30 165 -196 21 -102 22 -99 -68 -172 -101
-80 -159 -110 -201 -106 -28 3 -43 18 -114 113 -46 61 -83 120 -83 132 0 33
178 253 206 253 5 0 48 -11 95 -24z m-250 -814 c12 -37 35 -98 51 -136 26 -65
27 -70 11 -82 -10 -7 -21 -14 -25 -14 -8 0 -138 253 -138 268 0 10 62 41 72
36 3 -2 17 -35 29 -72z m115 56 c4 -7 15 -57 25 -113 15 -92 15 -101 1 -113
-30 -23 -44 -8 -83 97 -21 57 -39 105 -39 107 0 7 56 33 72 34 9 0 20 -5 24
-12z m118 -4 c13 -5 16 -23 16 -91 l0 -84 -32 -14 c-18 -7 -34 -13 -35 -12 -1
1 -7 40 -13 86 -10 74 -9 85 6 102 18 20 32 23 58 13z m-296 -178 c34 -57 62
-109 62 -115 0 -6 -13 -17 -29 -26 l-29 -15 -71 76 c-39 42 -80 89 -92 105
l-20 28 23 14 c43 27 63 36 78 37 9 0 42 -44 78 -104z m356 -63 c7 -27 28 -85
44 -131 l31 -83 -102 -75 c-149 -111 -183 -129 -205 -113 -37 29 -222 204
-222 210 0 13 407 238 432 239 4 0 14 -21 22 -47z m-445 -37 c55 -56 62 -67
51 -80 -25 -31 -68 -19 -131 35 -32 29 -59 55 -59 60 0 7 59 48 70 49 3 0 34
-29 69 -64z m9 -313 l3 -23 -170 0 c-159 0 -171 1 -171 18 0 10 3 22 7 26 4 3
79 5 167 4 158 -3 161 -3 164 -25z m673 -113 c19 -11 25 -43 13 -74 -5 -14
-57 -16 -476 -16 -371 0 -469 3 -466 12 3 7 26 16 53 20 76 11 621 58 710 61
44 2 95 4 113 5 18 1 42 -3 53 -8z"/>
<path d="M7755 7520 c-43 -48 8 -130 111 -181 54 -26 85 -22 102 13 25 53 -21
114 -125 167 -52 26 -65 26 -88 1z m103 -44 c15 -8 38 -26 51 -40 20 -21 22
-28 11 -41 -18 -22 -44 -19 -79 10 -32 27 -47 58 -36 75 8 14 21 13 53 -4z"/>
<path d="M8017 6639 c-130 -37 -164 -66 -215 -183 -29 -64 -28 -65 11 -29 65
61 243 197 282 214 33 16 36 18 15 18 -14 0 -56 -9 -93 -20z"/>
<path d="M8111 5861 c-62 -89 -112 -163 -110 -165 2 -1 41 -16 87 -33 l83 -31
67 34 c91 47 189 65 346 65 247 1 391 -31 475 -107 70 -63 85 -60 55 11 l-15
37 33 28 32 27 -54 57 c-52 54 -57 57 -83 47 -59 -23 -132 -4 -112 29 11 19
-12 10 -31 -11 -19 -21 -22 -21 -304 -15 -157 4 -288 11 -293 15 -4 4 -20 45
-35 91 l-28 83 -113 -162z"/>
<path d="M9192 5145 l27 -28 -86 -171 c-48 -94 -97 -181 -109 -193 -16 -15
-35 -23 -59 -23 -32 0 -35 -2 -25 -19 15 -30 12 -118 -6 -154 -16 -31 -102
-173 -153 -252 -49 -76 -92 -123 -129 -142 -34 -17 -77 -18 -602 -21 -547 -3
-640 1 -640 27 0 5 11 24 24 43 l23 35 -50 16 c-28 9 -51 15 -52 14 0 -1 -9
-27 -19 -57 -59 -178 -223 -328 -419 -385 -31 -9 -57 -17 -57 -18 0 -1 634 -2
1409 -2 775 0 1408 1 1407 2 -2 2 -38 12 -80 23 -114 29 -201 76 -280 150
-157 147 -223 323 -196 520 6 45 14 89 17 98 4 9 -12 -3 -35 -28 -39 -42 -41
-44 -41 -20 -1 35 57 164 106 236 47 69 135 152 191 180 20 11 39 20 41 21 2
1 -12 40 -30 87 -30 76 -36 85 -54 78 -27 -10 -105 -8 -130 2 -16 7 -15 3 7
-19z"/>
<path d="M7326 4880 c-32 -33 -56 -64 -54 -68 2 -4 10 -19 17 -34 l13 -26 117
4 c112 5 201 19 201 33 0 4 -35 27 -77 51 -43 24 -91 53 -108 65 -16 12 -35
25 -41 28 -6 4 -37 -20 -68 -53z"/>
<path d="M6750 4829 c36 -17 99 -41 140 -55 41 -13 87 -28 103 -33 40 -14 33
0 -24 41 -61 45 -161 78 -233 78 l-51 -1 65 -30z"/>
<path d="M9725 4744 c24 -55 41 -82 57 -88 80 -30 104 -44 138 -84 49 -56 63
-98 58 -178 -5 -84 -41 -138 -118 -177 -45 -24 -65 -28 -110 -25 -106 8 -189
72 -217 167 -20 71 -13 130 25 191 l31 49 -36 81 c-20 44 -40 80 -45 80 -18 0
-105 -97 -126 -142 -47 -97 -46 -233 4 -335 31 -64 120 -148 192 -181 199 -91
442 -21 531 153 121 236 -68 545 -344 563 l-74 5 34 -79z"/>
<path d="M6397 4685 c-55 -69 -72 -121 -72 -221 0 -84 2 -95 38 -166 45 -92
102 -146 204 -195 154 -74 343 -51 466 57 47 42 94 119 99 164 3 27 0 30 -66
52 -88 30 -96 30 -96 -1 0 -60 -64 -141 -135 -171 -135 -57 -304 33 -335 179
-12 62 -1 132 30 182 l19 30 -36 25 c-20 13 -47 41 -61 62 -13 21 -25 38 -26
38 0 0 -14 -16 -29 -35z"/>
<path d="M6550 6935 c0 -21 27 -30 45 -15 23 19 18 30 -15 30 -20 0 -30 -5
-30 -15z"/>
<path d="M6457 6923 c-14 -13 -7 -33 11 -33 26 0 34 11 21 27 -13 14 -22 16
-32 6z"/>
<path d="M6350 6889 c0 -25 33 -22 38 4 2 12 -3 17 -17 17 -15 0 -21 -6 -21
-21z"/>
<path d="M6287 6852 c-10 -2 -16 -9 -14 -15 6 -18 34 -20 40 -3 7 18 -1 24
-26 18z"/>
<path d="M6220 6766 c0 -15 24 -28 34 -19 13 14 5 33 -14 33 -11 0 -20 -6 -20
-14z"/>
<path d="M9415 6920 c4 -6 43 -36 88 -68 104 -72 217 -184 241 -240 20 -45 39
-51 44 -14 9 61 -126 214 -258 293 -61 36 -130 53 -115 29z"/>
<path d="M6003 6183 c-18 -6 -16 -33 1 -33 19 0 31 19 20 30 -5 4 -15 5 -21 3z"/>
<path d="M6212 6178 c7 -21 36 -34 49 -21 6 6 8 16 5 22 -10 15 -59 14 -54 -1z"/>
<path d="M6090 6155 c0 -12 7 -15 25 -13 14 2 26 8 26 13 0 6 -12 11 -26 13
-18 2 -25 -1 -25 -13z"/>
<path d="M5907 6094 c-11 -12 3 -24 29 -24 15 0 24 6 24 15 0 15 -40 21 -53 9z"/>
<path d="M5740 5367 c-8 -6 -39 -40 -68 -74 l-53 -62 38 -6 c21 -4 49 -8 63
-11 20 -4 40 9 98 62 39 36 72 69 72 74 0 4 -21 11 -47 15 -27 3 -57 8 -68 11
-11 2 -27 -2 -35 -9z m67 -40 c10 -10 7 -20 -18 -50 -32 -39 -67 -48 -89 -22
-10 11 -6 22 17 55 23 33 32 39 53 34 14 -3 31 -11 37 -17z"/>
<path d="M5856 5240 l-44 -41 31 -57 c16 -31 32 -59 34 -61 2 -3 19 11 37 30
l34 34 -16 68 c-9 37 -20 67 -24 67 -5 0 -28 -18 -52 -40z"/>
<path d="M5690 5090 c62 -81 85 -95 110 -65 10 13 7 27 -19 80 l-32 65 -60 0
-60 0 61 -80z"/>
</g>
</svg>
